# xmcd
#
# Track frame offsets:
#	150
#	15088
#	30888
#	49210
#	61968
#	76547
#	92182
#	106774
#	122238
#	138093
#	152316
#	166580
#	180890
#	194632
#	206019
#	223940
#	242821
#	258230
#	276097
#	285849
#
# Disc length: 4024 seconds
#
# Revision: 1
# Processed by: cddbd v1.5.2PL0 Copyright (c) Steve Scherf et al.
# Submitted via: audiograbber 1.83.01
#
DISCID=f70fb614
DTITLE=Various Artist - Double Cream 7, The Women of Country, Disc 2
DYEAR=2015
DGENRE=Country
TTITLE0=Gretchen Wilson - Here for the Party
TTITLE1=Lucinda Williams - Can't Let Go
TTITLE2=Mary Chapin Carpenter - He Thinks He'll Keep Her
TTITLE3=LeAnn Rimes - Blue
TTITLE4=Gina Jeffreys - Girl's Night Out
TTITLE5=Mindy McCready - Ten Thousand Angels
TTITLE6=Deana Carter - Did I Shave My Legs For This?
TTITLE7=Chelsea Basham - Laugh It Off
TTITLE8=Amber Lawrence - Superhero
TTITLE9=Terri Clark - Better Things To Do
TTITLE10=Suzy Bogguss - Drive South
TTITLE11=Catherine Britt - Charlestown Road
TTITLE12=Jamie O'Neal - When I Think About Angels
TTITLE13=RaeLynn - Boyfriend
TTITLE14=Anne Kirkpatrick - Out of the Blue
TTITLE15=Juice Newton - Angel of the Morning
TTITLE16=Rosanne Cash - World of Strange Design
TTITLE17=Sara Storer - Buffalo Bill
TTITLE18=Anne Murray - Snowbird
TTITLE19=Dolly Parton - Blue Smoke
EXTD=
EXTT0=
EXTT1=
EXTT2=
EXTT3=
EXTT4=
EXTT5=
EXTT6=
EXTT7=
EXTT8=
EXTT9=
EXTT10=
EXTT11=
EXTT12=
EXTT13=
EXTT14=
EXTT15=
EXTT16=
EXTT17=
EXTT18=
EXTT19=
PLAYORDER=
